<svg xmlns="http://www.w3.org/2000/svg" xmlns:xlink="http://www.w3.org/1999/xlink" version="1.1" x="0px" y="0px" viewBox="0 0 100 125" enable-background="new 0 0 100 100" xml:space="preserve"><g><path fill="#000000" d="M61,87.73l35.9-35.9c0.005-0.006,0.006-0.012,0.012-0.018c0.178-0.182,0.321-0.396,0.42-0.635   c0.1-0.24,0.15-0.494,0.152-0.75c0-0.004,0.002-0.008,0.002-0.013c0-0.261-0.054-0.52-0.154-0.765   C97.229,49.405,97.084,49.184,96.9,49L61,13.1c-0.781-0.781-2.047-0.781-2.828,0c-0.392,0.391-0.586,0.903-0.586,1.414   c0,0.512,0.194,1.024,0.586,1.414l32.486,32.487H5.313c-1.104,0-2,0.896-2,2c0,1.104,0.896,1.999,2,1.999h85.346L58.172,84.902   c-0.392,0.389-0.586,0.9-0.586,1.414c0,0.512,0.194,1.021,0.586,1.414C58.953,88.51,60.217,88.51,61,87.73"/></g></svg>