<svg xmlns="http://www.w3.org/2000/svg" width="90" height="90"><rect width="90" height="90" fill="#757575"/><path d="M45 22.86c7.21 0 8.06 0 10.91.16a14.91 14.91 0 015 .93 8.92 8.92 0 015.13 5.13 14.91 14.91 0 01.93 5c.13 2.85.16 3.7.16 10.91s0 8.06-.16 10.91a14.91 14.91 0 01-.93 5 8.92 8.92 0 01-5.13 5.13 14.91 14.91 0 01-5 .93c-2.85.13-3.7.16-10.91.16s-8.06 0-10.91-.16a14.91 14.91 0 01-5-.93A8.92 8.92 0 0124 60.92a14.91 14.91 0 01-.93-5c-.13-2.85-.16-3.7-.16-10.91s0-8.06.16-10.91a14.91 14.91 0 01.93-5 8.92 8.92 0 015.08-5.1 14.91 14.91 0 015-.93c2.85-.13 3.7-.16 10.91-.16M45 18c-7.33 0-8.25 0-11.13.16a19.73 19.73 0 00-6.56 1.26 13.77 13.77 0 00-7.89 7.89 19.73 19.73 0 00-1.26 6.56C18 36.75 18 37.67 18 45s0 8.25.16 11.13a19.73 19.73 0 001.26 6.56 13.77 13.77 0 007.89 7.89 19.73 19.73 0 006.56 1.26c2.88.16 3.8.16 11.13.16s8.25 0 11.13-.16a19.73 19.73 0 006.56-1.26 13.77 13.77 0 007.89-7.89 19.73 19.73 0 001.26-6.56C72 53.25 72 52.33 72 45s0-8.25-.16-11.13a19.73 19.73 0 00-1.26-6.56 13.77 13.77 0 00-7.89-7.89 19.73 19.73 0 00-6.56-1.26C53.25 18 52.33 18 45 18z" fill="#fff"/><path d="M45 31.14A13.86 13.86 0 1058.86 45 13.85 13.85 0 0045 31.14zM45 54a9 9 0 119-9 9 9 0 01-9 9z" fill="#fff"/><circle cx="59.41" cy="30.59" r="3.24" fill="#fff"/></svg>