<svg xmlns="http://www.w3.org/2000/svg" width="90" height="90"><rect width="90" height="90" fill="#757575"/><path d="M35 66.8c20.38 0 31.52-16.88 31.52-31.52v-1.43A22.52 22.52 0 0072 28.11a22 22 0 01-6.36 1.74 11.15 11.15 0 004.87-6.12 22.21 22.21 0 01-7 2.69 11.1 11.1 0 00-18.88 10.1 31.42 31.42 0 01-22.87-11.58 11.09 11.09 0 003.43 14.79 10.92 10.92 0 01-5-1.38v.14a11.07 11.07 0 008.89 10.86 11.24 11.24 0 01-2.92.39 11.05 11.05 0 01-2.09-.2 11.1 11.1 0 0010.35 7.7A22.24 22.24 0 0120.64 62a23.1 23.1 0 01-2.64-.17 31.36 31.36 0 0017 5" fill="#fff"/></svg>